<svg width="42" height="42" viewBox="0 0 42 42" fill="none" xmlns="http://www.w3.org/2000/svg">
<path d="M40.7989 5.74178C40.181 5.12285 39.1785 5.12179 38.5607 5.73915L19.571 24.6787L12.7196 17.2374C12.1276 16.5948 11.1266 16.5531 10.4829 17.145C9.83971 17.737 9.79853 18.7385 10.3905 19.3817L18.3579 28.0344C18.6497 28.3516 19.0581 28.5357 19.4886 28.5447C19.5002 28.5451 19.5114 28.5451 19.5224 28.5451C19.9409 28.5451 20.3434 28.379 20.6399 28.0835L40.7958 7.98049C41.4152 7.36321 41.4162 6.3607 40.7989 5.74178Z" fill="#3366FF"/>
<path d="M40.417 19.417C39.5428 19.417 38.8342 20.1256 38.8342 21C38.8342 30.8342 30.8342 38.8342 21 38.8342C11.1664 38.8342 3.16583 30.8342 3.16583 21C3.16583 11.1664 11.1664 3.16583 21 3.16583C21.8743 3.16583 22.583 2.45725 22.583 1.58296C22.583 0.708586 21.8743 0 21 0C9.42047 0 0 9.42047 0 21C0 32.579 9.42047 42 21 42C32.579 42 42 32.579 42 21C42 20.1257 41.2914 19.417 40.417 19.417Z" fill="#3366FF"/>
</svg>
