<svg width="18" height="13" viewBox="0 0 18 13" fill="none" xmlns="http://www.w3.org/2000/svg">
<path fill-rule="evenodd" clip-rule="evenodd" d="M1.07243 0.0259678C0.852881 0.0757748 0.533917 0.253986 0.378748 0.413515C0.29972 0.49478 0.184892 0.661582 0.12364 0.784115L0.0122267 1.00696L0.00282786 5.72635C-0.00241721 8.37072 0.00677046 10.4316 0.0237729 10.4135C0.0404586 10.3957 0.278352 10.0398 0.552398 9.62257L1.05068 8.86392V6.61343C1.05068 5.08686 1.06332 4.3061 1.08993 4.18617C1.21627 3.61691 1.70684 3.15223 2.31087 3.02973C2.5727 2.97662 11.8449 2.97602 12.1111 3.0291C12.4161 3.08988 12.6685 3.22169 12.8976 3.43986C13.2429 3.76856 13.3713 4.10427 13.3713 4.67823V4.99352H13.9017H14.4321L14.4209 4.00105L14.4098 3.00858L14.2983 2.78573C14.1433 2.47562 13.9438 2.28243 13.6234 2.13237L13.3574 2.00777L10.024 1.99863L6.69061 1.98946L6.6779 1.49632C6.66526 1.00449 6.66487 1.00256 6.53382 0.751255C6.37555 0.447776 6.17166 0.258623 5.84446 0.111737L5.60931 0.0061517L3.4092 0.000547186C2.15243 -0.00262205 1.15048 0.00825346 1.07243 0.0259678ZM2.37994 4.0615C2.29925 4.1019 2.22079 4.17853 2.17714 4.25956C2.10856 4.387 2.10631 4.44334 2.11515 5.81462L2.12433 7.23744L2.66954 6.40736C3.23907 5.54033 3.41114 5.3386 3.71106 5.18644C4.10553 4.98628 3.933 4.99352 8.30964 4.99352H12.3153V4.69194C12.3153 4.32034 12.2447 4.16148 12.0346 4.05987C11.8973 3.99355 11.8382 3.99274 7.2036 3.99418C2.6016 3.99565 2.50902 3.99691 2.37994 4.0615ZM4.27164 6.04124C4.21356 6.06579 4.13263 6.1216 4.0918 6.16524C4.01622 6.24597 0.159124 12.0944 0.0528144 12.2894C-0.0713423 12.5172 0.0316581 12.815 0.275325 12.9328C0.41314 12.9995 0.468583 13 7.211 13C13.8655 13 14.0105 12.9986 14.1415 12.9353C14.2582 12.8789 14.502 12.5459 16.0641 10.309C17.0479 8.90008 17.8859 7.67943 17.9263 7.59643C17.9823 7.4812 17.9997 7.37828 18 7.16124C18.0003 6.9074 17.9881 6.85333 17.8856 6.6561C17.7521 6.39899 17.5612 6.22258 17.2829 6.09892L17.0851 6.01101L10.7312 6.00377C5.48611 5.99783 4.3588 6.00434 4.27164 6.04124Z" fill="white"/>
</svg>
