<svg width="73" height="69" viewBox="0 0 73 69" fill="none" xmlns="http://www.w3.org/2000/svg">
<path fill-rule="evenodd" clip-rule="evenodd" d="M36.5 22.8748C37.1904 22.8748 37.75 23.4345 37.75 24.1248V41.4165C37.75 42.1069 37.1904 42.6665 36.5 42.6665C35.8097 42.6665 35.25 42.1069 35.25 41.4165V24.1248C35.25 23.4345 35.8097 22.8748 36.5 22.8748Z" fill="#F01658"/>
<path fill-rule="evenodd" clip-rule="evenodd" d="M36.5001 3.2168C33.0618 3.2168 29.3435 5.56943 26.3882 10.8989L16.2204 29.1595L5.43076 48.5947C2.65827 53.5951 2.60944 57.8663 4.33915 60.813C6.06816 63.7586 9.81695 65.794 15.5426 65.794H36.5001C36.601 65.794 36.6992 65.806 36.7933 65.8286H57.4576C63.1646 65.8286 66.9148 63.794 68.6486 60.8466C70.3825 57.899 70.3409 53.628 67.5693 48.6293L46.6119 10.8989C43.6566 5.56943 39.9383 3.2168 36.5001 3.2168ZM36.2068 68.294H15.5426C9.26774 68.294 4.50903 66.041 2.18314 62.0786C-0.142045 58.1173 0.206837 52.8608 3.24435 47.3824L24.2019 9.68655C27.4024 3.91516 31.8114 0.716797 36.5001 0.716797C41.1889 0.716797 45.5977 3.91479 48.7982 9.68655L69.7554 47.4164C72.7939 52.8965 73.133 58.1538 70.8034 62.1142C68.4736 66.0748 63.7164 68.3286 57.4576 68.3286H36.5001C36.3991 68.3286 36.3009 68.3166 36.2068 68.294Z" fill="#F01658"/>
<path fill-rule="evenodd" clip-rule="evenodd" d="M35.2315 51.7911C35.2315 51.1008 35.7912 50.5411 36.4815 50.5411H36.5126C37.2029 50.5411 37.7626 51.1008 37.7626 51.7911C37.7626 52.4815 37.2029 53.0411 36.5126 53.0411H36.4815C35.7912 53.0411 35.2315 52.4815 35.2315 51.7911Z" fill="#F01658"/>
</svg>
