<?xml version="1.0" standalone="no"?>
<!DOCTYPE svg PUBLIC "-//W3C//DTD SVG 20010904//EN"
 "http://www.w3.org/TR/2001/REC-SVG-20010904/DTD/svg10.dtd">
<svg version="1.0" xmlns="http://www.w3.org/2000/svg"
 width="512.000000pt" height="512.000000pt" viewBox="0 0 512.000000 512.000000"
 preserveAspectRatio="xMidYMid meet">
<metadata>
Created by potrace 1.14, written by Peter Selinger 2001-2017
</metadata>
<g transform="translate(0.000000,512.000000) scale(0.100000,-0.100000)"
fill="#000000" stroke="none">
<path d="M2211 5100 c-187 -67 -271 -207 -308 -510 -2 -19 -5 -307 -5 -640 0
-333 -3 -626 -5 -651 l-5 -47 -376 -2 c-975 -5 -1088 -7 -1120 -18 -176 -58
-305 -198 -371 -401 -20 -62 -21 -83 -21 -612 l0 -547 33 -5 c37 -7 429 -1
467 7 14 2 70 12 125 20 563 88 1097 346 1595 771 87 74 394 390 471 485 86
105 207 270 244 332 213 360 305 568 404 913 24 85 25 89 56 245 44 226 58
363 59 570 l1 105 -595 2 c-569 2 -597 1 -649 -17z"/>
<path d="M4688 3575 c-2 -1 -37 -6 -78 -9 -41 -4 -82 -8 -90 -11 -8 -2 -33 -6
-55 -10 -163 -24 -435 -101 -624 -176 -446 -179 -830 -438 -1211 -819 -361
-361 -615 -727 -789 -1140 -18 -41 -36 -84 -42 -95 -28 -60 -133 -405 -153
-505 -44 -220 -44 -222 -52 -290 -3 -30 -8 -64 -10 -74 -13 -68 -25 -407 -16
-433 7 -21 1147 -18 1226 2 130 34 225 104 286 209 37 66 77 215 87 329 4 45
7 352 6 682 0 330 2 623 4 652 l5 52 271 1 c150 1 488 3 752 5 520 2 508 1
625 60 101 51 206 176 261 310 l24 60 0 600 0 600 -212 2 c-116 1 -213 0 -215
-2z"/>
</g>
</svg>
